<svg xmlns="http://www.w3.org/2000/svg" xmlns:xlink="http://www.w3.org/1999/xlink" width="500" zoomAndPan="magnify" viewBox="0 0 375 374.999991" height="500" preserveAspectRatio="xMidYMid meet" version="1.0"><path fill="#000000" d="M 345.871094 148.386719 L 337.847656 148.386719 C 333.402344 148.386719 329.476562 145.507812 328.082031 141.324219 C 325.726562 134.257812 322.9375 127.371094 319.535156 120.828125 C 317.527344 116.816406 318.226562 112.019531 321.453125 108.792969 L 327.210938 103.039062 C 338.546875 91.699219 338.546875 73.125 327.210938 61.789062 L 313.082031 47.835938 C 301.746094 36.496094 283.253906 36.496094 271.832031 47.835938 L 266.074219 53.589844 C 262.9375 56.730469 258.050781 57.515625 254.128906 55.507812 C 247.585938 52.195312 240.699219 49.316406 233.632812 46.960938 C 229.359375 45.566406 226.570312 41.640625 226.570312 37.195312 L 226.570312 29.171875 C 226.570312 13.125 213.488281 0.0429688 197.441406 0.0429688 L 177.644531 0.0429688 C 161.597656 0.0429688 148.515625 13.125 148.515625 29.171875 L 148.515625 37.195312 C 148.515625 41.640625 145.640625 45.566406 141.453125 46.960938 C 134.390625 49.316406 127.5 52.109375 120.960938 55.507812 C 116.949219 57.515625 112.152344 56.816406 108.925781 53.589844 L 103.167969 47.835938 C 91.832031 36.496094 73.253906 36.496094 61.917969 47.835938 L 47.878906 61.875 C 36.539062 73.210938 36.539062 91.789062 47.878906 103.125 L 53.632812 108.878906 C 56.773438 112.019531 57.558594 116.816406 55.550781 120.828125 C 52.238281 127.371094 49.359375 134.257812 47.003906 141.324219 C 45.609375 145.597656 41.6875 148.386719 37.238281 148.386719 L 29.214844 148.386719 C 13.082031 148.386719 0 161.46875 0 177.601562 L 0 197.398438 C 0 213.445312 13.082031 226.527344 29.128906 226.527344 L 37.152344 226.527344 C 41.597656 226.527344 45.523438 229.402344 46.917969 233.589844 C 49.273438 240.652344 52.0625 247.542969 55.464844 254.085938 C 57.472656 258.097656 56.773438 262.890625 53.546875 266.121094 L 47.789062 271.875 C 36.453125 283.210938 36.453125 301.789062 47.789062 313.125 L 61.917969 327.078125 C 73.253906 338.414062 91.746094 338.414062 103.167969 327.078125 L 108.925781 321.324219 C 112.0625 318.183594 116.949219 317.398438 120.871094 319.402344 C 127.414062 322.71875 134.300781 325.597656 141.367188 327.949219 C 145.640625 329.347656 148.429688 333.269531 148.429688 337.71875 L 148.429688 345.828125 C 148.429688 361.875 161.511719 374.957031 177.558594 374.957031 L 197.355469 374.957031 C 213.402344 374.957031 226.484375 361.875 226.484375 345.828125 L 226.484375 337.71875 C 226.484375 333.269531 229.359375 329.347656 233.546875 327.949219 C 240.609375 325.597656 247.5 322.804688 254.039062 319.402344 C 258.050781 317.398438 262.847656 318.097656 266.074219 321.324219 L 271.832031 327.078125 C 283.167969 338.414062 301.746094 338.414062 313.082031 327.078125 L 327.121094 313.039062 C 338.460938 301.699219 338.460938 283.125 327.121094 271.789062 L 321.367188 266.03125 C 318.226562 262.890625 317.441406 258.097656 319.449219 254.085938 C 322.761719 247.542969 325.640625 240.652344 327.996094 233.589844 C 329.390625 229.316406 333.3125 226.527344 337.761719 226.527344 L 345.785156 226.527344 C 361.832031 226.527344 374.914062 213.445312 374.914062 197.398438 L 374.914062 177.601562 C 375 161.46875 361.917969 148.386719 345.871094 148.386719 Z M 356.25 197.3125 C 356.25 203.066406 351.539062 207.6875 345.871094 207.6875 L 337.847656 207.6875 C 325.289062 207.6875 314.214844 215.710938 310.289062 227.660156 C 308.285156 233.765625 305.753906 239.78125 302.878906 245.539062 C 297.210938 256.789062 299.300781 270.304688 308.199219 279.289062 L 313.953125 285.042969 C 318.050781 289.140625 318.050781 295.683594 313.953125 299.78125 L 299.914062 313.824219 C 295.8125 317.921875 289.1875 317.835938 285.175781 313.824219 L 279.417969 308.066406 C 270.523438 299.171875 257.003906 296.992188 245.667969 302.746094 C 239.914062 305.625 233.984375 308.152344 227.789062 310.160156 C 215.84375 314.085938 207.820312 325.160156 207.820312 337.71875 L 207.820312 345.828125 C 207.820312 351.585938 203.109375 356.207031 197.441406 356.207031 L 177.644531 356.207031 C 171.890625 356.207031 167.265625 351.496094 167.265625 345.828125 L 167.265625 337.71875 C 167.265625 325.160156 159.246094 314.085938 147.296875 310.160156 C 141.191406 308.152344 135.175781 305.625 129.417969 302.746094 C 125.234375 300.652344 120.699219 299.609375 116.25 299.609375 C 108.75 299.609375 101.335938 302.574219 95.753906 308.152344 L 90 313.910156 C 85.902344 317.921875 79.359375 318.007812 75.261719 313.910156 L 61.222656 299.871094 C 57.121094 295.769531 57.121094 289.230469 61.222656 285.128906 L 66.976562 279.375 C 75.871094 270.480469 78.050781 256.960938 72.296875 245.625 C 69.417969 239.871094 66.890625 233.9375 64.882812 227.746094 C 60.960938 215.800781 49.882812 207.777344 37.324219 207.777344 L 29.300781 207.777344 C 23.546875 207.777344 18.925781 203.066406 18.925781 197.398438 L 18.925781 177.601562 C 18.925781 171.847656 23.632812 167.222656 29.300781 167.222656 L 37.324219 167.222656 C 49.882812 167.222656 60.960938 159.199219 64.882812 147.253906 C 66.890625 141.148438 69.417969 135.128906 72.296875 129.375 C 77.964844 118.125 75.871094 104.609375 66.976562 95.625 L 61.222656 89.871094 C 57.121094 85.769531 57.121094 79.230469 61.222656 75.128906 L 75.261719 61.089844 C 79.359375 56.992188 85.902344 56.992188 90 61.089844 L 95.753906 66.847656 C 104.652344 75.742188 118.253906 77.921875 129.503906 72.164062 C 135.261719 69.289062 141.191406 66.757812 147.382812 64.753906 C 159.332031 60.828125 167.355469 49.753906 167.355469 37.195312 L 167.355469 29.171875 C 167.355469 23.414062 172.0625 18.792969 177.734375 18.792969 L 197.527344 18.792969 C 203.285156 18.792969 207.90625 23.503906 207.90625 29.171875 L 207.90625 37.195312 C 207.90625 49.753906 215.929688 60.828125 227.878906 64.753906 C 233.984375 66.757812 240 69.289062 245.753906 72.164062 C 257.003906 77.835938 270.523438 75.742188 279.503906 66.847656 L 285.261719 61.089844 C 289.273438 56.992188 295.902344 56.992188 300 61.089844 L 314.039062 75.128906 C 318.140625 79.230469 318.140625 85.769531 314.039062 89.871094 L 308.285156 95.625 C 299.390625 104.519531 297.210938 118.039062 302.964844 129.375 C 305.84375 135.128906 308.371094 141.0625 310.378906 147.253906 C 314.300781 159.199219 325.378906 167.222656 337.9375 167.222656 L 345.960938 167.222656 C 351.714844 167.222656 356.335938 171.933594 356.335938 177.601562 L 356.335938 197.3125 Z M 356.25 197.3125 " fill-opacity="1" fill-rule="nonzero"/><path fill="#000000" d="M 187.5 88.996094 C 133.253906 88.996094 89.039062 133.125 89.039062 187.457031 C 89.039062 241.789062 133.253906 285.914062 187.5 285.914062 C 241.746094 285.914062 285.960938 241.699219 285.960938 187.457031 C 285.960938 133.210938 241.746094 88.996094 187.5 88.996094 Z M 187.5 267.164062 C 143.546875 267.164062 107.789062 231.410156 107.789062 187.457031 C 107.789062 143.503906 143.546875 107.746094 187.5 107.746094 C 231.453125 107.746094 267.210938 143.503906 267.210938 187.457031 C 267.210938 231.410156 231.453125 267.164062 187.5 267.164062 Z M 187.5 267.164062 " fill-opacity="1" fill-rule="nonzero"/></svg>